<svg width="55" height="55" viewBox="0 0 55 55" fill="none" xmlns="http://www.w3.org/2000/svg">
<path d="M2.86426 16.6147C2.86426 9.02083 9.02034 2.86475 16.6143 2.86475H38.3851C45.979 2.86475 52.1351 9.02083 52.1351 16.6147V38.3856C52.1351 45.9795 45.979 52.1356 38.3851 52.1356H16.6143C9.02034 52.1356 2.86426 45.9795 2.86426 38.3856V16.6147Z" fill="url(#paint0_linear_424_424)"/>
<path fill-rule="evenodd" clip-rule="evenodd" d="M24.0625 40.1045C24.0625 38.2061 25.6016 36.667 27.5 36.667H27.5172C29.4156 36.667 30.9547 38.2061 30.9547 40.1045C30.9547 42.0029 29.4156 43.542 27.5172 43.542H27.5C25.6016 43.542 24.0625 42.0029 24.0625 40.1045Z" fill="white"/>
<path fill-rule="evenodd" clip-rule="evenodd" d="M37.8399 28.6164C31.5608 23.7684 23.4565 23.7684 17.1774 28.6164C16.4261 29.1967 15.3467 29.0578 14.7666 28.3064C14.1865 27.5552 14.3253 26.4758 15.0767 25.8958C22.5934 20.092 32.424 20.092 39.9407 25.8958C40.6921 26.4758 40.8308 27.5552 40.2508 28.3064C39.6705 29.0578 38.5914 29.1967 37.8399 28.6164Z" fill="white"/>
<path fill-rule="evenodd" clip-rule="evenodd" d="M42.4911 23.033C33.3886 16.0033 21.6111 16.0033 12.5086 23.033C11.7573 23.6132 10.678 23.4746 10.0978 22.7232C9.51758 21.9719 9.65627 20.8925 10.4075 20.3123C20.7477 12.3269 34.2521 12.3269 44.5921 20.3123C45.3435 20.8925 45.4822 21.9719 44.9019 22.7232C44.3217 23.4746 43.2423 23.6132 42.4911 23.033Z" fill="white"/>
<path fill-rule="evenodd" clip-rule="evenodd" d="M34.7886 34.4687C30.3551 31.0344 24.6278 31.0344 20.1942 34.4687C19.4438 35.0501 18.3642 34.9129 17.7829 34.1626C17.2016 33.412 17.3387 32.3324 18.0892 31.7513C23.762 27.357 31.2209 27.357 36.8937 31.7513C37.644 32.3324 37.7813 33.412 37.1999 34.1626C36.6187 34.9129 35.5391 35.0501 34.7886 34.4687Z" fill="white"/>
<defs>
<linearGradient id="paint0_linear_424_424" x1="40" y1="40.5" x2="9" y2="10" gradientUnits="userSpaceOnUse">
<stop stop-color="#F06F1E"/>
<stop offset="1" stop-color="#F29F6C"/>
</linearGradient>
</defs>
</svg>
