<svg width="129" height="129" viewBox="0 0 129 129" fill="none" xmlns="http://www.w3.org/2000/svg">
<circle cx="64.5" cy="64.5" r="64" stroke="#F06F1E"/>
<path d="M57 61L72 45L57 29" stroke="#F06F1E" stroke-width="3" stroke-linecap="round" stroke-linejoin="round"/>
<path d="M43.815 85.224C42.9097 85.224 42.1117 85.0187 41.421 84.608C40.7303 84.188 40.189 83.5953 39.797 82.83C39.405 82.0553 39.209 81.1267 39.209 80.044C39.209 78.98 39.4003 78.0607 39.783 77.286C40.1657 76.502 40.7023 75.9 41.393 75.48C42.0837 75.0507 42.8957 74.836 43.829 74.836C45.0983 74.836 46.083 75.1533 46.783 75.788C47.483 76.4133 47.9403 77.2907 48.155 78.42L46.251 78.518C46.1297 77.8647 45.8683 77.3513 45.467 76.978C45.0657 76.6047 44.5197 76.418 43.829 76.418C43.269 76.418 42.7837 76.5673 42.373 76.866C41.9623 77.1647 41.645 77.5847 41.421 78.126C41.197 78.6673 41.085 79.3067 41.085 80.044C41.085 80.7907 41.197 81.4347 41.421 81.976C41.6543 82.508 41.9763 82.9187 42.387 83.208C42.7977 83.4973 43.2737 83.642 43.815 83.642C44.5523 83.642 45.1217 83.4413 45.523 83.04C45.9337 82.6293 46.195 82.0693 46.307 81.36L48.211 81.458C48.0803 82.2327 47.8283 82.9047 47.455 83.474C47.0817 84.034 46.587 84.468 45.971 84.776C45.3643 85.0747 44.6457 85.224 43.815 85.224ZM53.6704 85L50.3944 81.262H52.5364L55.8964 85H53.6704ZM48.6864 85V77.524H50.5064V85H48.6864ZM50.3944 81.262L53.5304 77.524H55.7284L52.5364 81.262H50.3944ZM58.1375 85.168C57.3535 85.168 56.7235 84.9907 56.2475 84.636C55.7715 84.272 55.5335 83.768 55.5335 83.124C55.5335 82.48 55.7342 81.976 56.1355 81.612C56.5369 81.248 57.1482 80.9867 57.9695 80.828L60.4475 80.338C60.4475 79.806 60.3262 79.4093 60.0835 79.148C59.8409 78.8773 59.4815 78.742 59.0055 78.742C58.5762 78.742 58.2355 78.8447 57.9835 79.05C57.7409 79.246 57.5729 79.5307 57.4795 79.904L55.6595 79.82C55.8089 79.0267 56.1729 78.42 56.7515 78C57.3302 77.5707 58.0815 77.356 59.0055 77.356C60.0695 77.356 60.8722 77.6267 61.4135 78.168C61.9642 78.7 62.2395 79.4653 62.2395 80.464V83.18C62.2395 83.376 62.2722 83.5113 62.3375 83.586C62.4122 83.6607 62.5195 83.698 62.6595 83.698H62.8975V85C62.8415 85.0187 62.7482 85.0327 62.6175 85.042C62.4962 85.0513 62.3702 85.056 62.2395 85.056C61.9315 85.056 61.6562 85.0093 61.4135 84.916C61.1709 84.8133 60.9842 84.6407 60.8535 84.398C60.7229 84.146 60.6575 83.8053 60.6575 83.376L60.8115 83.488C60.7369 83.8147 60.5735 84.1087 60.3215 84.37C60.0789 84.622 59.7709 84.818 59.3975 84.958C59.0242 85.098 58.6042 85.168 58.1375 85.168ZM58.5015 83.866C58.9029 83.866 59.2482 83.7867 59.5375 83.628C59.8269 83.4693 60.0509 83.25 60.2095 82.97C60.3682 82.69 60.4475 82.3587 60.4475 81.976V81.556L58.5155 81.948C58.1142 82.032 57.8249 82.158 57.6475 82.326C57.4795 82.4847 57.3955 82.6947 57.3955 82.956C57.3955 83.2453 57.4889 83.4693 57.6755 83.628C57.8715 83.7867 58.1469 83.866 58.5015 83.866ZM68.2353 85V80.898L68.5293 80.394C68.5199 80.8513 68.4033 81.262 68.1793 81.626C67.9646 81.9807 67.6706 82.2607 67.2973 82.466C66.9239 82.6713 66.4993 82.774 66.0233 82.774C65.1459 82.774 64.4459 82.494 63.9233 81.934C63.4006 81.3647 63.1393 80.604 63.1393 79.652V77.524H64.9313V79.316C64.9313 79.932 65.0619 80.4173 65.3233 80.772C65.5846 81.1267 65.9393 81.304 66.3873 81.304C66.7699 81.304 67.0966 81.2247 67.3673 81.066C67.6473 80.898 67.8619 80.6647 68.0113 80.366C68.1606 80.0673 68.2353 79.7127 68.2353 79.302V77.524H70.0273V85H68.2353ZM73.3286 85.168C72.5446 85.168 71.9146 84.9907 71.4386 84.636C70.9626 84.272 70.7246 83.768 70.7246 83.124C70.7246 82.48 70.9253 81.976 71.3266 81.612C71.728 81.248 72.3393 80.9867 73.1606 80.828L75.6386 80.338C75.6386 79.806 75.5173 79.4093 75.2746 79.148C75.032 78.8773 74.6726 78.742 74.1966 78.742C73.7673 78.742 73.4266 78.8447 73.1746 79.05C72.932 79.246 72.764 79.5307 72.6706 79.904L70.8506 79.82C71 79.0267 71.364 78.42 71.9426 78C72.5213 77.5707 73.2726 77.356 74.1966 77.356C75.2606 77.356 76.0633 77.6267 76.6046 78.168C77.1553 78.7 77.4306 79.4653 77.4306 80.464V83.18C77.4306 83.376 77.4633 83.5113 77.5286 83.586C77.6033 83.6607 77.7106 83.698 77.8506 83.698H78.0886V85C78.0326 85.0187 77.9393 85.0327 77.8086 85.042C77.6873 85.0513 77.5613 85.056 77.4306 85.056C77.1226 85.056 76.8473 85.0093 76.6046 84.916C76.362 84.8133 76.1753 84.6407 76.0446 84.398C75.914 84.146 75.8486 83.8053 75.8486 83.376L76.0026 83.488C75.928 83.8147 75.7646 84.1087 75.5126 84.37C75.27 84.622 74.962 84.818 74.5886 84.958C74.2153 85.098 73.7953 85.168 73.3286 85.168ZM73.6926 83.866C74.094 83.866 74.4393 83.7867 74.7286 83.628C75.018 83.4693 75.242 83.25 75.4006 82.97C75.5593 82.69 75.6386 82.3587 75.6386 81.976V81.556L73.7066 81.948C73.3053 82.032 73.016 82.158 72.8386 82.326C72.6706 82.4847 72.5866 82.6947 72.5866 82.956C72.5866 83.2453 72.68 83.4693 72.8666 83.628C73.0626 83.7867 73.338 83.866 73.6926 83.866ZM80.1996 85V78.91H77.6236V77.524H84.5816V78.91H82.0056V85H80.1996ZM84.8185 85V77.524H86.6105V80.24H88.2905C89.4011 80.24 90.2458 80.4453 90.8245 80.856C91.4031 81.2667 91.6925 81.864 91.6925 82.648C91.6925 83.4133 91.4031 83.9967 90.8245 84.398C90.2458 84.7993 89.4011 85 88.2905 85H84.8185ZM86.6105 83.684H88.1645C88.7245 83.684 89.1445 83.6 89.4245 83.432C89.7045 83.2547 89.8445 82.9933 89.8445 82.648C89.8445 82.284 89.7045 82.018 89.4245 81.85C89.1445 81.6727 88.7245 81.584 88.1645 81.584H86.6105V83.684ZM26.2561 98V90.524H32.7381V98H30.9321V91.91H28.0481V98H26.2561ZM33.6192 100.1V90.524H35.3412L35.3832 92.12L35.2012 92.036C35.3879 91.4853 35.6912 91.07 36.1112 90.79C36.5406 90.5007 37.0399 90.356 37.6092 90.356C38.3186 90.356 38.9066 90.5333 39.3732 90.888C39.8492 91.2427 40.2039 91.714 40.4372 92.302C40.6706 92.89 40.7872 93.5433 40.7872 94.262C40.7872 94.9807 40.6659 95.634 40.4232 96.222C40.1899 96.81 39.8352 97.2813 39.3592 97.636C38.8926 97.9907 38.3046 98.168 37.5952 98.168C37.2219 98.168 36.8719 98.1027 36.5452 97.972C36.2279 97.8413 35.9526 97.6547 35.7192 97.412C35.4952 97.1693 35.3366 96.8847 35.2432 96.558L35.4112 96.418V100.1H33.6192ZM37.1752 96.712C37.7166 96.712 38.1412 96.4973 38.4492 96.068C38.7666 95.6293 38.9252 95.0273 38.9252 94.262C38.9252 93.4967 38.7666 92.8993 38.4492 92.47C38.1412 92.0313 37.7166 91.812 37.1752 91.812C36.8112 91.812 36.4986 91.9053 36.2372 92.092C35.9759 92.2693 35.7706 92.54 35.6212 92.904C35.4812 93.268 35.4112 93.7207 35.4112 94.262C35.4112 94.8033 35.4812 95.256 35.6212 95.62C35.7612 95.984 35.9619 96.2593 36.2232 96.446C36.4939 96.6233 36.8112 96.712 37.1752 96.712ZM41.3378 98V90.524H43.1298V95.354L45.8458 90.524H47.6098V98H45.8178V93.296L43.1858 98H41.3378ZM48.2295 98V96.516H48.7615C49.0042 96.516 49.1909 96.432 49.3215 96.264C49.4522 96.0867 49.5362 95.8347 49.5735 95.508L50.1055 90.524H56.0555V98H54.2495V91.91H51.7435L51.3235 95.928C51.2582 96.6093 51.0622 97.1273 50.7355 97.482C50.4182 97.8273 49.9795 98 49.4195 98H48.2295ZM60.2828 98.168C59.5454 98.168 58.8968 98.0093 58.3368 97.692C57.7861 97.3653 57.3568 96.908 57.0488 96.32C56.7501 95.732 56.6008 95.046 56.6008 94.262C56.6008 93.4687 56.7501 92.7827 57.0488 92.204C57.3568 91.616 57.7861 91.1633 58.3368 90.846C58.8968 90.5193 59.5454 90.356 60.2828 90.356C61.0201 90.356 61.6641 90.5193 62.2148 90.846C62.7654 91.1633 63.1901 91.616 63.4888 92.204C63.7968 92.7827 63.9508 93.4687 63.9508 94.262C63.9508 95.046 63.7968 95.732 63.4888 96.32C63.1901 96.908 62.7654 97.3653 62.2148 97.692C61.6641 98.0093 61.0201 98.168 60.2828 98.168ZM60.2828 96.712C60.8614 96.712 61.3048 96.4973 61.6128 96.068C61.9301 95.6387 62.0888 95.0367 62.0888 94.262C62.0888 93.4967 61.9301 92.8993 61.6128 92.47C61.3048 92.0313 60.8614 91.812 60.2828 91.812C59.7041 91.812 59.2561 92.0313 58.9388 92.47C58.6214 92.8993 58.4628 93.4967 58.4628 94.262C58.4628 95.0367 58.6214 95.6387 58.9388 96.068C59.2561 96.4973 59.7041 96.712 60.2828 96.712ZM63.474 98L66.596 94.262H68.78L65.728 98H63.474ZM68.584 98V90.524H70.376V98H68.584ZM73.204 98L70.166 94.262H72.322L75.444 98H73.204ZM70.166 94.262L73.064 90.524H75.304L72.322 94.262H70.166ZM66.596 94.262L63.614 90.524H65.868L68.78 94.262H66.596ZM78.6454 98.168C77.8987 98.168 77.2501 98.0093 76.6994 97.692C76.1487 97.3653 75.7241 96.908 75.4254 96.32C75.1267 95.732 74.9774 95.046 74.9774 94.262C74.9774 93.478 75.1267 92.7967 75.4254 92.218C75.7241 91.63 76.1441 91.1727 76.6854 90.846C77.2361 90.5193 77.8754 90.356 78.6034 90.356C79.3127 90.356 79.9334 90.5147 80.4654 90.832C81.0067 91.1493 81.4221 91.6067 81.7114 92.204C82.0007 92.8013 82.1454 93.52 82.1454 94.36V94.766H76.8394C76.8767 95.4193 77.0541 95.914 77.3714 96.25C77.6981 96.5767 78.1274 96.74 78.6594 96.74C79.0607 96.74 79.3921 96.6513 79.6534 96.474C79.9241 96.2873 80.1107 96.0307 80.2134 95.704L82.0474 95.816C81.8421 96.544 81.4361 97.118 80.8294 97.538C80.2321 97.958 79.5041 98.168 78.6454 98.168ZM76.8394 93.562H80.2974C80.2601 92.9553 80.0874 92.5073 79.7794 92.218C79.4714 91.9193 79.0794 91.77 78.6034 91.77C78.1274 91.77 77.7307 91.924 77.4134 92.232C77.1054 92.54 76.9141 92.9833 76.8394 93.562ZM82.7062 98V90.524H84.4982V98H82.7062ZM87.2562 98V90.524H89.0482V98H87.2562ZM83.2382 94.962V93.59H88.4042V94.962H83.2382ZM90.1787 98V90.524H91.9707V95.354L94.6867 90.524H96.4507V98H94.6587V93.296L92.0267 98H90.1787ZM100.666 98.168C99.9198 98.168 99.2711 98.0093 98.7204 97.692C98.1698 97.3653 97.7451 96.908 97.4464 96.32C97.1478 95.732 96.9984 95.046 96.9984 94.262C96.9984 93.478 97.1478 92.7967 97.4464 92.218C97.7451 91.63 98.1651 91.1727 98.7064 90.846C99.2571 90.5193 99.8964 90.356 100.624 90.356C101.334 90.356 101.954 90.5147 102.486 90.832C103.028 91.1493 103.443 91.6067 103.732 92.204C104.022 92.8013 104.166 93.52 104.166 94.36V94.766H98.8604C98.8978 95.4193 99.0751 95.914 99.3924 96.25C99.7191 96.5767 100.148 96.74 100.68 96.74C101.082 96.74 101.413 96.6513 101.674 96.474C101.945 96.2873 102.132 96.0307 102.234 95.704L104.068 95.816C103.863 96.544 103.457 97.118 102.85 97.538C102.253 97.958 101.525 98.168 100.666 98.168ZM98.8604 93.562H102.318C102.281 92.9553 102.108 92.5073 101.8 92.218C101.492 91.9193 101.1 91.77 100.624 91.77C100.148 91.77 99.7518 91.924 99.4344 92.232C99.1264 92.54 98.9351 92.9833 98.8604 93.562Z" fill="#F06F1E"/>
</svg>
