<svg width="49" height="49" viewBox="0 0 49 49" fill="none" xmlns="http://www.w3.org/2000/svg">
<g clip-path="url(#clip0_424_435)">
<path d="M25.5215 1.09033V13.2682C28.6257 13.1356 31.616 12.4056 34.3703 11.1282C32.3477 5.57194 29.1329 1.71033 25.5215 1.09033Z" fill="#F06F1E"/>
<path d="M7.90039 6.44889C9.36392 7.90941 10.9959 9.13354 12.7374 10.145C14.3783 5.70842 16.7742 2.29677 19.6194 0.460938C15.1532 1.36294 11.1283 3.47902 7.90039 6.44889Z" fill="#F06F1E"/>
<path d="M29.3799 0.461426C32.2248 2.29705 34.6207 5.70859 36.2617 10.1449C38.0037 9.1334 39.637 7.91155 41.1008 6.45114C37.8725 3.48034 33.8471 1.36353 29.3799 0.461426Z" fill="#F06F1E"/>
<path d="M12.4209 25.522C12.5072 29.2257 13.0598 32.7373 13.9639 35.8383C16.929 34.4948 20.1455 33.7276 23.478 33.5974V25.522H12.4209Z" fill="#F06F1E"/>
<path d="M14.6084 37.8152C16.6297 43.4017 19.8543 47.2873 23.4783 47.9096V35.666C20.3654 35.7987 17.368 36.5318 14.6084 37.8152Z" fill="#F06F1E"/>
<path d="M42.5471 7.89648C40.8534 9.58675 38.9613 11.0046 36.9277 12.1403C37.9367 15.5065 38.5372 19.3527 38.6231 23.478H49.0004C48.7541 17.4759 46.353 12.031 42.5471 7.89648Z" fill="#F06F1E"/>
<path d="M6.45378 7.89551C2.64753 12.0304 0.24634 17.4753 0 23.478H10.3771C10.4629 19.3531 11.0634 15.5068 12.0723 12.1409C10.0389 11.005 8.14778 9.58609 6.45378 7.89551Z" fill="#F06F1E"/>
<path d="M13.9814 13.1035C13.0671 16.219 12.5078 19.7511 12.4209 23.478H23.478V15.3366C20.1522 15.2067 16.9418 14.4421 13.9814 13.1035Z" fill="#F06F1E"/>
<path d="M14.6289 11.1287C17.3829 12.406 20.3731 13.1356 23.4781 13.2681V1.09033C19.8664 1.71043 16.6516 5.57225 14.6289 11.1287Z" fill="#F06F1E"/>
<path d="M10.3771 25.522H0C0.245614 31.5077 2.63333 36.9396 6.42122 41.0701C8.11844 39.37 10.015 37.9444 12.0547 36.803C11.0561 33.4507 10.4624 29.6238 10.3771 25.522Z" fill="#F06F1E"/>
<path d="M38.6231 25.522C38.5378 29.6241 37.944 33.451 36.9453 36.8036C38.9794 37.9418 40.872 39.3619 42.5654 41.0552L42.5808 41.0677C46.3662 36.9376 48.7549 31.5064 49.0005 25.522H38.6231Z" fill="#F06F1E"/>
<path d="M41.1196 42.5002C39.6566 41.0374 38.0227 39.8144 36.2809 38.8008C34.6395 43.2632 32.2364 46.6957 29.3799 48.5388C33.8633 47.6334 37.9029 45.5054 41.1361 42.5174L41.1196 42.5002Z" fill="#F06F1E"/>
<path d="M35.018 13.103C32.0572 14.4418 28.8465 15.2066 25.5215 15.3365V23.4778H36.5784C36.4915 19.7508 35.9324 16.2187 35.018 13.103Z" fill="#F06F1E"/>
<path d="M12.7185 38.8003C10.9706 39.8176 9.33218 41.047 7.86523 42.5171C11.0993 45.5046 15.1368 47.6337 19.6198 48.5389C16.7632 46.6958 14.3601 43.263 12.7185 38.8003Z" fill="#F06F1E"/>
<path d="M25.5215 35.666V47.9097C29.1453 47.2874 32.3698 43.4021 34.3911 37.8157C31.6312 36.5324 28.6337 35.7988 25.5215 35.666Z" fill="#F06F1E"/>
<path d="M25.5215 25.522V33.5974C28.853 33.7276 32.0699 34.495 35.0354 35.8386C35.9396 32.7373 36.4921 29.2258 36.5784 25.522H25.5215Z" fill="#F06F1E"/>
</g>
<defs>
<clipPath id="clip0_424_435">
<rect width="49" height="49" fill="white"/>
</clipPath>
</defs>
</svg>
