<?xml version="1.0" encoding="UTF-8"?>
<svg xmlns="http://www.w3.org/2000/svg" width="210mm" height="297mm" viewBox="0 0 21000 29700" fill="none">
  <defs>
    <style type="text/css">
      <![CDATA[
        .white { fill: #FFFFFF; }
        .yellow { fill: #F6B900; }
      ]]>
    </style>
  </defs>

  <g id="logo">
    <!-- Все серые пути теперь белые -->
    <path class="white" d="M49134.8 -32567.77l0 1024.72 1140.1 0 0 -1024.72 370.51 0 0.02 -640.86 -0.02 0 0 -370.52 -370.51 0 0 -8.02 0 -577.25c0,-149.8 122.55,-272.35 272.36,-272.35l28.66 0c132.08,0 242.97,95.25 267.36,220.47l925.46 -682.93c-211.21,-369.91 -634.97,-622.46 -1123.31,-622.46l-50.72 0c-804.09,0 -1459.91,655.83 -1459.91,1459.91l0 474.61 0 1019.4z"/>
    
    <path class="yellow" d="M54378.14 -35625.7c295.2,0 534.49,429.94 534.49,960.3 0,530.35 -239.29,960.29 -534.49,960.29 -295.2,0 -534.49,-429.94 -534.49,-960.29 0,-530.36 239.29,-960.3 534.49,-960.3zm1670.01 0c295.2,0 534.49,429.94 534.49,960.3 0,530.35 -239.29,960.29 -534.49,960.29 -295.2,0 -534.5,-429.94 -534.5,-960.29 0,-530.36 239.3,-960.3 534.5,-960.3z"/>
    
    <path class="yellow" d="M55209.08 -32048.65c-1279.38,0 -2316.53,-1037.15 -2316.53,-2316.52 0,-20.63 0.29,-41.21 0.81,-61.7 3.22,-123.11 -38.71,-230.22 -124.64,-318.43 -85.93,-88.22 -191.93,-132.93 -315.07,-132.93l-29.63 0c-237.82,0 -432.81,189.44 -439.68,427.14 -0.92,31.64 -1.37,63.44 -1.37,95.33 0,1786.92 1448.61,3235.54 3235.54,3235.54 1786.89,0 3235.5,-1448.62 3235.5,-3235.54 0,-31.89 -0.45,-63.69 -1.37,-95.33 -6.87,-237.7 -201.86,-427.14 -439.68,-427.14l-48.47 0c-123.14,0 -229.14,44.71 -315.07,132.93 -85.93,88.21 -127.86,195.32 -124.64,318.43 0.53,20.49 0.81,41.07 0.81,61.7 0,1279.37 -1037.15,2316.52 -2316.51,2316.52z"/>
    
    <path class="white" d="M60662.38 -35525.66c775.64,0 1410.24,634.6 1410.24,1410.24l0 2578.35 -1136.43 0 0 -2593.28c0,-145.39 -118.59,-263.98 -263.98,-263.98l-7.6 0c-145.39,0 -263.98,118.59 -263.98,263.98l0 2593.28 -1148.49 0 0 -2578.35c0,-775.64 634.59,-1410.24 1410.24,-1410.24z"/>
    
    <path class="white" d="M64613.61 -35451.73l0 1111.39c0,0 -267.66,-132.7 -419.57,56.03 -151.92,188.73 -71.36,382.05 0,510.94 71.35,128.9 373.88,631.07 333.62,1025.56 -40.25,394.5 -152.95,1070.8 -1127.14,1292.2 0,0 -450.14,102.52 -804.59,-116.15l0 -1120.93c0,0 179.54,151.9 338.36,119.68 158.81,-32.22 308.42,-131.2 313.03,-310.73 4.61,-179.53 -292.32,-573.13 -345.25,-796.4 -52.94,-223.27 -215.46,-789.48 243.61,-1365.18 459.08,-575.7 1091,-480.34 1467.93,-406.41z"/>
    
    <circle class="yellow" cx="65781.27" cy="-34940.77" r="597.95"/>
    
    <path class="white" d="M65195.54 -34483.39l11.11 0c71.88,249.56 301.94,432.11 574.62,432.11 260.68,0 482.37,-166.85 564.2,-399.54l0 2907.05 -1149.93 0 0 -2939.62z"/>
    
    <path class="white" d="M68171.39 -35517.91c430.21,0 801.07,250.39 971.03,611.39 169.95,-361 540.83,-611.39 971.06,-611.39 590.95,0 1070.02,472.38 1070.02,1055.07 0,33.37 -1.64,66.34 -4.71,98.91l0 2823.83 -1121.22 0 0 -2690.43c0,-87.28 -71.17,-158.46 -158.46,-158.46l-26.89 0c-87.28,0 -158.46,71.18 -158.46,158.46l0 746.68 -16.41 1943.75 -1124.1 0 -6.88 -1941.92 0 -748.51c0,-87.28 -71.17,-158.46 -158.46,-158.46l-26.89 0c-87.28,0 -158.46,71.18 -158.46,158.46l0 2690.43 -1121.23 0 0 -2922.74c0,-582.69 479.07,-1055.07 1070.06,-1055.07z"/>
  </g>
</svg>