<svg viewBox="82.25792163543441 0 213.7410562180579 198.7518" xmlns="http://www.w3.org/2000/svg" data-name="Слой 2" id="_Слой_2" style="max-height: 500px" width="213.7410562180579" height="198.7518">
  <defs>
    <style>
      .cls-1 {
        fill: #ff5413;
      }
    </style>
  </defs>
  <g data-name="Слой 1" id="_Слой_1-2">
    <g>
      <path d="m185.83,114.36l-54.81-58.68c-.76-.81-1.81-1.27-2.92-1.27h-27.04c-7.04,0-12.76,5.71-12.76,12.76v114.09c0,8.69,7.04,15.73,15.73,15.73h0c8.69,0,15.73-7.04,15.73-15.73v-88.37c0-.89,1.08-1.33,1.71-.69l42.2,43.39c5.86,6.12,15.58,6.32,21.69.46h0c6.12-5.86,6.32-15.58.46-21.69Z" class="cls-1"/>
      <path d="m194.37,114.36l54.81-58.68c.76-.81,1.81-1.27,2.92-1.27h8.33s18.28,0,18.28,0h.43c7.04,0,12.76,5.71,12.76,12.76v.43s0,22.68,0,22.68v90.99c0,8.69-7.04,15.73-15.73,15.73h0c-8.69,0-15.73-7.04-15.73-15.73v-88.37c0-.89-1.08-1.33-1.71-.69l-42.2,43.39c-5.86,6.12-15.58,6.32-21.69.46h0c-6.12-5.86-6.32-15.58-.46-21.69Z" class="cls-1"/>
      <circle r="21.25" cy="21.25" cx="112.17" class="cls-1"/>
      <circle r="21.25" cy="21.25" cx="268.5" class="cls-1"/>
    </g>
    <g>
      <polygon points="80.15 264.88 63.14 264.88 53.28 286.3 43.37 264.88 26.36 264.88 0 322.14 13.32 322.14 34.72 275.09 46.59 300.84 36.78 322.14 50.1 322.14 53.24 315.26 56.41 322.14 69.87 322.14 59.9 300.6 71.5 275.09 93.19 322.14 106.65 322.14 80.15 264.88"/>
      <polygon points="121.54 322.14 142.94 275.09 164.62 322.14 178.09 322.14 151.58 264.88 134.57 264.88 108.21 322.14 121.54 322.14"/>
      <polygon points="323.65 322.14 345.05 275.09 366.73 322.14 380.2 322.14 353.69 264.88 336.69 264.88 310.32 322.14 323.65 322.14"/>
      <path d="m224.36,322.14h15.8l-17.67-22.01c9.03-.88,16.09-8.49,16.09-17.75,0-9.85-7.98-17.83-17.83-17.83h-36.31v57.59h13.42v-21.92h9.41l17.09,21.92Zm-26.88-47.3h19.93c4.39,0,7.94,3.56,7.94,7.94s-3.56,7.94-7.94,7.94h-19.93v-15.89Z"/>
      <path d="m296.87,298.89c-1.98,7.41-7.63,13.19-18.96,13.19-13.72,0-20.14-8.34-20.14-18.62,0-12.47,9.02-18.62,20.14-18.62s17.12,5.63,19.1,13.33h13.36c-2.2-14.14-13.33-24.88-32.71-24.88-18.04,0-32.67,9.98-32.67,30.2,0,16.68,10.42,30.2,32.67,30.2,20.22,0,31.25-10.56,32.24-24.8h-13.03Z"/>
    </g>
  </g>
</svg>