<svg width="52" height="39" viewBox="0 0 52 39" fill="none" xmlns="http://www.w3.org/2000/svg">
<path d="M0 32.4997V13.7884C0 13.4261 0.381388 13.1904 0.70551 13.3523L21.6398 23.8196C24.3844 25.192 27.6156 25.192 30.3602 23.8196L51.2944 13.3523C51.6188 13.1904 52 13.4261 52 13.7884V32.4997C52 36.0896 49.0899 38.9997 45.5 38.9997H6.5C2.91015 38.9997 0 36.0896 0 32.4997Z" fill="#F06F1E"/>
<path d="M0 6.5V9.44869C0 9.63336 0.104325 9.80216 0.26949 9.88475L21.6398 20.5699C24.3844 21.9424 27.6156 21.9424 30.3602 20.5699L51.7306 9.88475C51.8957 9.80216 52 9.63336 52 9.44872V6.5C52 2.91015 49.0899 0 45.5 0H6.5C2.91015 0 0 2.91015 0 6.5Z" fill="#F29F6C"/>
</svg>
